<svg width="9" height="6" viewBox="0 0 9 6" fill="none" xmlns="http://www.w3.org/2000/svg">
<path d="M8.93415 1.51079C8.93415 1.43936 8.89844 1.359 8.84487 1.30543L8.39844 0.859C8.34487 0.805429 8.26451 0.769714 8.19308 0.769714C8.12165 0.769714 8.0413 0.805429 7.98772 0.859L4.4788 4.36793L0.969866 0.859C0.916295 0.805429 0.835938 0.769714 0.764509 0.769714C0.684152 0.769714 0.612723 0.805429 0.559152 0.859L0.112723 1.30543C0.0591518 1.359 0.0234375 1.43936 0.0234375 1.51079C0.0234375 1.58221 0.0591518 1.66257 0.112723 1.71614L4.27344 5.87686C4.32701 5.93043 4.40737 5.96614 4.4788 5.96614C4.55022 5.96614 4.63058 5.93043 4.68415 5.87686L8.84487 1.71614C8.89844 1.66257 8.93415 1.58221 8.93415 1.51079Z" fill="black"/>
</svg>
