<svg width="55" height="56" viewBox="0 0 55 56" fill="none" xmlns="http://www.w3.org/2000/svg">
<path d="M23.9935 29.3724V28.0867C23.9935 27.7251 24.2748 27.4439 24.6364 27.4439H38.7793C39.1409 27.4439 39.4221 27.7251 39.4221 28.0867V29.3724C39.4221 29.734 39.1409 30.0153 38.7793 30.0153H24.6364C24.2748 30.0153 23.9935 29.734 23.9935 29.3724Z" fill="white"/>
<path d="M24.6364 32.5867H38.7793C39.1409 32.5867 39.4221 32.868 39.4221 33.2296V34.5153C39.4221 34.8769 39.1409 35.1581 38.7793 35.1581H24.6364C24.2748 35.1581 23.9935 34.8769 23.9935 34.5153V33.2296C23.9935 32.868 24.2748 32.5867 24.6364 32.5867Z" fill="white"/>
<path d="M24.6364 37.7296H38.7793C39.1409 37.7296 39.4221 38.0108 39.4221 38.3724V39.6581C39.4221 40.0198 39.1409 40.301 38.7793 40.301H24.6364C24.2748 40.301 23.9935 40.0198 23.9935 39.6581V38.3724C23.9935 38.0108 24.2748 37.7296 24.6364 37.7296Z" fill="white"/>
<path fill-rule="evenodd" clip-rule="evenodd" d="M16.2793 21.3148C12.1841 21.3148 8.86426 17.995 8.86426 13.8998C8.86426 9.80461 12.1841 6.4848 16.2793 6.4848C19.7233 6.4848 22.6189 8.83277 23.4527 12.0153H36.2078C37.2726 12.0153 38.7592 12.6381 39.5025 13.3814L45.7703 19.6492C46.5136 20.3925 47.1364 21.8791 47.1364 22.9439V46.0867C47.1364 47.1515 46.2726 48.0153 45.2078 48.0153H18.2078C17.1431 48.0153 16.2793 47.1515 16.2793 46.0867L16.2793 21.3148ZM18.8507 20.8568C21.4732 19.8871 23.3974 17.477 23.6629 14.5867H34.2793V22.9439C34.2793 24.0086 35.1431 24.8724 36.2078 24.8724H44.565V45.4439H18.8507V20.8568ZM37.6743 15.1894C37.5337 15.0488 37.1922 14.868 36.8507 14.7474V22.301H44.4043C44.2837 21.9595 44.1029 21.618 43.9623 21.4773L37.6743 15.1894ZM17.2793 14.8998H21.2793V12.8998H17.2793V8.89984H15.2793V12.8998H11.2793V14.8998H15.2793V18.8998H17.2793V14.8998Z" fill="white"/>
</svg>
