<svg width="16" height="13" viewBox="0 0 16 13" fill="none" xmlns="http://www.w3.org/2000/svg">
<path d="M14.7508 10.8491C14.7508 10.9914 14.6253 11.117 14.483 11.117H2.16155C2.01925 11.117 1.89369 10.9914 1.89369 10.8491V4.42057C2.06948 4.62146 2.262 4.80561 2.47126 4.97302C3.66825 5.89378 4.87361 6.83128 6.03711 7.80226C6.6649 8.32961 7.44336 8.97414 8.3139 8.97414H8.32227H8.33064C9.20117 8.97414 9.97963 8.32961 10.6074 7.80226C11.7709 6.83128 12.9763 5.89378 14.1733 4.97302C14.3825 4.80561 14.5751 4.62146 14.7508 4.42057V10.8491ZM14.7508 2.05171C14.7508 2.7632 14.0645 3.69233 13.5204 4.11923C12.3987 4.99813 11.2771 5.88541 10.1638 6.77269C9.72015 7.13262 8.91657 7.90271 8.33064 7.90271H8.32227H8.3139C7.72796 7.90271 6.92439 7.13262 6.48075 6.77269C5.36747 5.88541 4.24581 4.99813 3.12416 4.11923C2.37081 3.52492 1.89369 2.69624 1.89369 1.742C1.89369 1.5997 2.01925 1.47414 2.16155 1.47414H14.483C14.8011 1.47414 14.7508 1.84244 14.7508 2.05171ZM15.8223 1.742C15.8223 1.00539 15.2196 0.40271 14.483 0.40271H2.16155C1.42494 0.40271 0.822266 1.00539 0.822266 1.742V10.8491C0.822266 11.5857 1.42494 12.1884 2.16155 12.1884H14.483C15.2196 12.1884 15.8223 11.5857 15.8223 10.8491V1.742Z" fill="#3E9CDC"/>
</svg>
