<svg width="55" height="56" viewBox="0 0 55 56" fill="none" xmlns="http://www.w3.org/2000/svg">
<path d="M37.7856 35.9643C37.7856 37.3705 36.6204 38.5357 35.2141 38.5357C33.8079 38.5357 32.6427 37.3705 32.6427 35.9643C32.6427 34.558 33.8079 33.3928 35.2141 33.3928C36.6204 33.3928 37.7856 34.558 37.7856 35.9643ZM22.357 20.5357C22.357 21.9419 21.1918 23.1071 19.7856 23.1071C18.3793 23.1071 17.2141 21.9419 17.2141 20.5357C17.2141 19.1294 18.3793 17.9643 19.7856 17.9643C21.1918 17.9643 22.357 19.1294 22.357 20.5357ZM42.9284 35.9643C42.9284 31.7053 39.4731 28.25 35.2141 28.25C30.9552 28.25 27.4999 31.7053 27.4999 35.9643C27.4999 40.2232 30.9552 43.6786 35.2141 43.6786C39.4731 43.6786 42.9284 40.2232 42.9284 35.9643ZM40.9999 14.1071C40.9999 13.404 40.4173 12.8214 39.7141 12.8214H36.4999C36.0981 12.8214 35.7164 13.0223 35.4753 13.3437L14.261 41.6294C14.1003 41.8504 13.9999 42.1116 13.9999 42.3928C13.9999 43.096 14.5824 43.6786 15.2856 43.6786H18.4999C18.9016 43.6786 19.2833 43.4777 19.5244 43.1562L40.7387 14.8705C40.8994 14.6495 40.9999 14.3884 40.9999 14.1071ZM27.4999 20.5357C27.4999 16.2768 24.0445 12.8214 19.7856 12.8214C15.5266 12.8214 12.0713 16.2768 12.0713 20.5357C12.0713 24.7946 15.5266 28.25 19.7856 28.25C24.0445 28.25 27.4999 24.7946 27.4999 20.5357Z" fill="white"/>
</svg>
