<svg width="21" height="20" viewBox="0 0 21 20" fill="none" xmlns="http://www.w3.org/2000/svg">
<g clip-path="url(#clip0_203_8)">
<g clip-path="url(#clip1_203_8)">
<path d="M16.9115 13.4558C16.9716 13.8435 16.8447 14.0076 16.7165 14.0076C16.5882 14.0076 16.4025 13.8499 16.1955 13.5372C15.9884 13.2245 15.9176 12.8769 16.0178 12.6985C16.0555 12.6368 16.1164 12.5914 16.1878 12.5719C16.2592 12.5524 16.3356 12.5603 16.4012 12.5939C16.7419 12.7179 16.8754 13.2232 16.9115 13.4558ZM15.0239 14.3061C15.434 14.6408 15.5582 15.0388 15.3418 15.3192C15.2759 15.3976 15.1919 15.46 15.0965 15.5013C15.0012 15.5426 14.8971 15.5616 14.7928 15.557C14.5639 15.5573 14.3422 15.4801 14.1662 15.3386C13.7948 15.0246 13.6853 14.5141 13.9284 14.2247C13.9821 14.1653 14.0492 14.1185 14.1244 14.0881C14.1997 14.0576 14.2812 14.0442 14.3626 14.0489C14.6074 14.0568 14.8415 14.1478 15.0239 14.3061V14.3061ZM14.3399 17.5367C16.102 17.5367 18.0136 18.1208 20.1311 19.9351C20.3421 20.116 20.624 19.8911 20.4397 19.665C18.3596 17.1258 16.4319 16.6412 14.5176 16.2328C12.1717 15.7314 10.964 14.4534 10.1184 13.0513C9.9514 12.7722 9.87525 12.8213 9.86055 13.1805C9.84651 13.7131 9.88814 14.2456 9.98479 14.77V14.77C9.88994 14.77 9.79376 14.77 9.69891 14.77C8.49671 14.77 7.32151 14.4252 6.32192 13.7791C5.32233 13.133 4.54324 12.2147 4.08318 11.1404C3.62312 10.066 3.50275 8.88379 3.73729 7.74324C3.97182 6.60269 4.55074 5.55503 5.40082 4.73274C6.2509 3.91045 7.33397 3.35046 8.51307 3.1236C9.69217 2.89673 10.9143 3.01316 12.025 3.45818C13.1357 3.9032 14.085 4.65682 14.7529 5.62373C15.4208 6.59064 15.7773 7.72742 15.7773 8.89031C15.7779 9.11871 15.765 9.34694 15.7386 9.57391C15.0982 9.49591 14.4511 9.48421 13.8082 9.53902C13.5771 9.5584 13.6105 9.66824 13.7841 9.69279C15.788 10.043 17.1747 11.2435 17.49 13.4338C17.4911 13.4449 17.4958 13.4554 17.5035 13.4637C17.5111 13.4721 17.5213 13.4779 17.5325 13.4803C17.5438 13.4828 17.5555 13.4817 17.5661 13.4773C17.5767 13.4729 17.5856 13.4654 17.5915 13.4558C18.6339 11.7702 19.0703 9.79832 18.8326 7.84768C18.5949 5.89703 17.6965 4.07732 16.2775 2.67239C14.8585 1.26746 12.9987 0.356295 10.9882 0.0810301C8.97771 -0.194235 6.92957 0.181874 5.16323 1.15069C3.39689 2.11951 2.01169 3.62656 1.22369 5.43677C0.435683 7.24698 0.289186 9.25857 0.807047 11.1578C1.32491 13.057 2.47801 14.737 4.08648 15.9358C5.69496 17.1346 7.66837 17.7847 9.69891 17.7848C11.0415 17.7887 12.3788 17.5354 14.3399 17.5354V17.5367Z" fill="#3E9CDC"/>
</g>
</g>
<defs>
<clipPath id="clip0_203_8">
<rect width="20" height="20" fill="white" transform="translate(0.5)"/>
</clipPath>
<clipPath id="clip1_203_8">
<rect width="20" height="20" fill="white" transform="translate(0.5)"/>
</clipPath>
</defs>
</svg>
