<svg width="12" height="14" viewBox="0 0 12 14" fill="none" xmlns="http://www.w3.org/2000/svg">
<path d="M11.1807 9.28625C11.1807 9.93665 11.0576 10.5079 10.8115 11.0001C10.5654 11.4923 10.2344 11.8995 9.81836 12.2218C9.32617 12.6085 8.78418 12.8839 8.19238 13.048C7.60645 13.212 6.85938 13.2941 5.95117 13.2941H0.712891V0.207153H5.33594C6.29688 0.207153 7.02344 0.245239 7.51562 0.321411C8.01367 0.391724 8.47949 0.544067 8.91309 0.778442C9.38184 1.0304 9.73047 1.36731 9.95898 1.78918C10.1934 2.21106 10.3105 2.69739 10.3105 3.24817C10.3105 3.88684 10.1494 4.4552 9.82715 4.95325C9.51074 5.45129 9.07129 5.8175 8.50879 6.05188V6.12219C9.31738 6.29211 9.96484 6.64075 10.4512 7.16809C10.9375 7.68958 11.1807 8.39563 11.1807 9.28625ZM6.9707 3.90735C6.9707 3.69641 6.91504 3.47961 6.80371 3.25696C6.69824 3.0343 6.53125 2.87317 6.30273 2.77356C6.08594 2.67981 5.82812 2.63 5.5293 2.62415C5.23633 2.61243 4.79688 2.60657 4.21094 2.60657H3.98242V5.37512H4.39551C4.95801 5.37512 5.35059 5.36926 5.57324 5.35754C5.80176 5.34583 6.03613 5.2843 6.27637 5.17297C6.54004 5.04993 6.72168 4.88 6.82129 4.66321C6.9209 4.44641 6.9707 4.19446 6.9707 3.90735ZM7.79688 9.22473C7.79688 8.82043 7.71484 8.50403 7.55078 8.27551C7.38672 8.047 7.14062 7.87415 6.8125 7.75696C6.61328 7.68079 6.33789 7.63977 5.98633 7.63391C5.64062 7.62219 5.1748 7.61633 4.58887 7.61633H3.98242V10.8947H4.1582C5.01367 10.8947 5.60547 10.8888 5.93359 10.8771C6.26172 10.8654 6.5957 10.7863 6.93555 10.6398C7.23438 10.5109 7.45117 10.3234 7.58594 10.0773C7.72656 9.82532 7.79688 9.54114 7.79688 9.22473Z" fill="#3E9CDC"/>
</svg>
