<?xml version="1.0" encoding="utf-8"?><svg viewBox="0 0 111 56" xmlns="http://www.w3.org/2000/svg" xmlns:xlink="http://www.w3.org/1999/xlink"><style>:root>svg{display:none}:root>svg:target{display:block}</style><svg viewBox="0 0 9 6" id="arrow" xmlns="http://www.w3.org/2000/svg"><path d="M8.934 1.51a.308.308 0 00-.09-.205L8.399.86a.308.308 0 00-.205-.09.308.308 0 00-.205.09l-3.51 3.509L.97.859a.308.308 0 00-.205-.09.29.29 0 00-.206.09l-.446.446a.308.308 0 00-.09.206c0 .071.036.152.09.205l4.16 4.16c.054.054.134.09.206.09a.308.308 0 00.205-.09l4.16-4.16a.308.308 0 00.09-.205z"/></svg><svg viewBox="0 0 9 7" id="arrow2" xmlns="http://www.w3.org/2000/svg"><path d="M8.934 5.357a.308.308 0 01-.09.206l-.446.446a.308.308 0 01-.205.09.308.308 0 01-.205-.09L4.478 2.5.97 6.01a.308.308 0 01-.205.09.29.29 0 01-.206-.09l-.446-.446a.308.308 0 01-.09-.206c0-.071.036-.152.09-.205l4.16-4.16a.308.308 0 01.206-.09c.071 0 .152.036.205.09l4.16 4.16c.054.053.09.134.09.205z"/></svg><svg viewBox="0 0 111 6" id="doted" xmlns="http://www.w3.org/2000/svg"><circle cx="81.972" cy="3" r="3"/><circle cx="107.972" cy="3" r="3"/><circle cx="55.972" cy="3" r="3"/><circle cx="29.972" cy="3" r="3"/><circle cx="3.972" cy="3" r="3"/></svg><svg viewBox="0 0 55 56" id="file" xmlns="http://www.w3.org/2000/svg"><path d="M23.994 29.372v-1.285c0-.362.28-.643.642-.643H38.78c.362 0 .643.281.643.643v1.285a.635.635 0 01-.643.643H24.636a.635.635 0 01-.642-.643zm.642 3.215H38.78c.362 0 .643.281.643.643v1.285a.635.635 0 01-.643.643H24.636a.635.635 0 01-.642-.643V33.23c0-.362.28-.643.642-.643zm0 5.143H38.78c.362 0 .643.28.643.642v1.286a.635.635 0 01-.643.643H24.636a.635.635 0 01-.642-.643v-1.286c0-.361.28-.642.642-.642z"/><path fill-rule="evenodd" clip-rule="evenodd" d="M16.28 21.315a7.415 7.415 0 117.173-9.3h12.755c1.065 0 2.551.623 3.294 1.366l6.268 6.268c.744.743 1.366 2.23 1.366 3.295v23.143a1.929 1.929 0 01-1.928 1.928h-27a1.929 1.929 0 01-1.929-1.928V21.315zm2.57-.458a7.421 7.421 0 004.813-6.27h10.616v8.357c0 1.065.864 1.928 1.929 1.928h8.357v20.572H18.851V20.857zm18.824-5.668c-.14-.14-.482-.321-.823-.442v7.554h7.553c-.12-.341-.301-.683-.442-.824l-6.288-6.288zM17.28 14.9h4v-2h-4v-4h-2v4h-4v2h4v4h2v-4z"/></svg><svg viewBox="0 0 18 21" id="files" xmlns="http://www.w3.org/2000/svg"><path d="M16.813 4.609L13.33 1.127c-.413-.413-1.24-.76-1.83-.76h-10A1.074 1.074 0 00.428 1.44v17.858c0 .591.48 1.07 1.071 1.07h15c.592 0 1.072-.479 1.072-1.07V6.439c0-.591-.346-1.417-.76-1.83zm-4.956-2.723c.19.067.38.167.458.245l3.493 3.494c.078.078.179.267.246.457h-4.197V1.886zm4.286 17.053H1.857V1.796h8.572V6.44c0 .592.48 1.072 1.071 1.072h4.643V18.94zM4.714 9.296v.715c0 .2.157.357.358.357h7.857c.2 0 .357-.156.357-.357v-.715c0-.2-.156-.357-.357-.357H5.072a.354.354 0 00-.358.357zm8.215 2.5H5.072a.354.354 0 00-.358.358v.714c0 .2.157.357.358.357h7.857c.2 0 .357-.156.357-.357v-.714a.352.352 0 00-.357-.357zm0 2.858H5.072a.353.353 0 00-.358.357v.714c0 .201.157.357.358.357h7.857c.2 0 .357-.156.357-.357v-.714a.352.352 0 00-.357-.357z"/></svg><svg viewBox="0 0 16 13" id="mail" xmlns="http://www.w3.org/2000/svg"><path d="M14.75 10.85a.275.275 0 01-.267.267H2.162a.275.275 0 01-.268-.268V4.421c.175.2.368.385.577.552 1.197.92 2.403 1.858 3.566 2.83.628.527 1.406 1.171 2.277 1.171h.017c.87 0 1.649-.644 2.276-1.172a114.812 114.812 0 013.566-2.829c.21-.167.402-.352.578-.552v6.428zm0-8.798c0 .711-.685 1.64-1.23 2.067a517.902 517.902 0 00-3.356 2.654c-.444.36-1.247 1.13-1.833 1.13h-.017c-.586 0-1.39-.77-1.833-1.13a518.72 518.72 0 00-3.357-2.654c-.753-.594-1.23-1.423-1.23-2.377 0-.142.125-.268.268-.268h12.321c.318 0 .268.368.268.578zm1.072-.31c0-.737-.602-1.34-1.339-1.34H2.162c-.737 0-1.34.603-1.34 1.34v9.107c0 .737.603 1.34 1.34 1.34h12.321c.737 0 1.34-.603 1.34-1.34V1.742z"/></svg><svg viewBox="0 0 56 56" id="mail2" xmlns="http://www.w3.org/2000/svg"><path d="M44.795 39.107a.661.661 0 01-.643.643H14.58a.661.661 0 01-.642-.643V23.68c.421.482.884.924 1.386 1.326 2.873 2.21 5.765 4.46 8.558 6.79 1.506 1.265 3.375 2.812 5.464 2.812h.04c2.09 0 3.958-1.547 5.465-2.812 2.792-2.33 5.685-4.58 8.558-6.79.502-.402.964-.844 1.386-1.326v15.428zm0-21.114c0 1.708-1.648 3.938-2.953 4.962a1287.32 1287.32 0 00-8.056 6.369c-1.065.863-2.993 2.712-4.4 2.712h-.04c-1.406 0-3.335-1.849-4.4-2.712-2.671-2.13-5.363-4.26-8.055-6.369-1.808-1.426-2.953-3.415-2.953-5.705 0-.341.301-.643.643-.643h29.57c.764 0 .644.884.644 1.386zm2.571-.743a3.224 3.224 0 00-3.214-3.214H14.58a3.224 3.224 0 00-3.214 3.214v21.857a3.224 3.224 0 003.215 3.214h29.57a3.224 3.224 0 003.215-3.214V17.25z"/></svg><svg viewBox="0 0 56 56" id="money" xmlns="http://www.w3.org/2000/svg"><path d="M24.728 32.536v-1.929H27.3v-5.786h-.04c-.322.503-.623.724-1.105 1.145l-1.547-1.607 2.973-2.752h2.29v9h2.572v1.929h-7.715zm10.286-5.143c0-3.656-2.21-8.357-6.429-8.357-4.218 0-6.428 4.7-6.428 8.357 0 3.656 2.21 8.357 6.428 8.357 4.22 0 6.43-4.7 6.43-8.357zM45.3 32.536a5.153 5.153 0 00-5.143 5.143H17.014a5.153 5.153 0 00-5.143-5.143V22.25a5.153 5.153 0 005.143-5.143h23.143A5.153 5.153 0 0045.3 22.25v10.286zm2.57-16.716c0-.703-.582-1.285-1.285-1.285h-36c-.704 0-1.286.582-1.286 1.285v23.143c0 .703.582 1.286 1.285 1.286h36c.704 0 1.286-.583 1.286-1.286V15.821z"/></svg><svg viewBox="0 0 55 56" id="proc" xmlns="http://www.w3.org/2000/svg"><path d="M37.786 35.964a2.59 2.59 0 01-2.572 2.572 2.59 2.59 0 01-2.571-2.572 2.59 2.59 0 012.571-2.571 2.59 2.59 0 012.572 2.571zM22.357 20.536a2.59 2.59 0 01-2.571 2.571 2.59 2.59 0 01-2.572-2.571 2.59 2.59 0 012.572-2.572 2.59 2.59 0 012.571 2.572zm20.571 15.428a7.716 7.716 0 00-7.714-7.714 7.716 7.716 0 00-7.714 7.714 7.716 7.716 0 007.714 7.715 7.716 7.716 0 007.714-7.715zM41 14.107c0-.703-.583-1.286-1.286-1.286H36.5c-.402 0-.784.201-1.025.523L14.261 41.629c-.16.221-.261.483-.261.764 0 .703.582 1.286 1.286 1.286H18.5c.402 0 .783-.201 1.024-.523L40.74 14.871c.16-.222.26-.483.26-.764zm-13.5 6.429a7.716 7.716 0 00-7.714-7.715 7.716 7.716 0 00-7.715 7.715 7.716 7.716 0 007.715 7.714 7.716 7.716 0 007.714-7.714z"/></svg><svg viewBox="0 0 21 20" id="qiwi" xmlns="http://www.w3.org/2000/svg"><g clip-path="url(#ja)"><g clip-path="url(#jb)"><path d="M16.912 13.456c.06.388-.067.552-.195.552-.129 0-.314-.158-.521-.47-.208-.313-.278-.661-.178-.84a.288.288 0 01.17-.126.297.297 0 01.213.022c.34.124.474.63.51.862zm-1.888.85c.41.335.534.733.318 1.013a.688.688 0 01-.549.238.998.998 0 01-.627-.218c-.371-.314-.48-.825-.238-1.114a.534.534 0 01.435-.176c.244.008.479.099.66.257zm-.684 3.23c1.762 0 3.674.585 5.791 2.4.211.18.493-.045.309-.271-2.08-2.54-4.008-3.024-5.922-3.432-2.346-.502-3.554-1.78-4.4-3.182-.167-.279-.243-.23-.257.13a7.655 7.655 0 00.124 1.589h-.286a6.225 6.225 0 01-3.377-.99 5.927 5.927 0 01-2.239-2.64 5.701 5.701 0 01-.346-3.397 5.823 5.823 0 011.664-3.01 6.145 6.145 0 013.112-1.61 6.27 6.27 0 013.512.335 6.04 6.04 0 012.728 2.166 5.744 5.744 0 01.986 3.95 9.38 9.38 0 00-1.93-.035c-.232.02-.198.13-.025.154 2.004.35 3.39 1.55 3.706 3.74a.051.051 0 00.014.03.056.056 0 00.088-.008 8.658 8.658 0 001.24-5.607 8.78 8.78 0 00-2.555-5.176A9.31 9.31 0 0010.989.081a9.46 9.46 0 00-5.825 1.07 9.001 9.001 0 00-3.94 4.286 8.625 8.625 0 00-.416 5.72 8.884 8.884 0 003.28 4.779A9.399 9.399 0 009.7 17.785c1.342.004 2.68-.25 4.64-.25v.002z"/></g></g><defs><clipPath id="ja"><path transform="translate(.5)" d="M0 0h20v20H0z"/></clipPath><clipPath id="jb"><path transform="translate(.5)" d="M0 0h20v20H0z"/></clipPath></defs></svg><svg viewBox="0 0 55 55" id="search" xmlns="http://www.w3.org/2000/svg"><path d="M33.929 24.929c0 4.962-4.038 9-9 9s-9-4.038-9-9 4.038-9 9-9 9 4.037 9 9zm10.286 16.714c0-.683-.282-1.346-.744-1.808l-6.89-6.89a14.11 14.11 0 002.49-8.016c0-7.815-6.327-14.143-14.142-14.143-7.815 0-14.143 6.328-14.143 14.143 0 7.814 6.328 14.142 14.143 14.142a14.11 14.11 0 008.016-2.49l6.89 6.87a2.522 2.522 0 001.808.763 2.59 2.59 0 002.572-2.571z"/></svg><svg viewBox="0 0 12 14" id="vk" xmlns="http://www.w3.org/2000/svg"><path d="M11.18 9.286c0 .65-.122 1.222-.368 1.714-.247.492-.578.9-.994 1.222a4.598 4.598 0 01-1.626.826c-.586.164-1.333.246-2.24.246H.711V.207h4.624c.96 0 1.687.038 2.18.114.498.07.963.223 1.397.457.469.252.817.59 1.046 1.011.234.422.351.908.351 1.46a3.07 3.07 0 01-.483 1.704A2.794 2.794 0 018.51 6.052v.07c.808.17 1.456.519 1.942 1.046.486.522.73 1.228.73 2.118zM6.97 3.907c0-.21-.055-.427-.166-.65a.961.961 0 00-.501-.483 2.042 2.042 0 00-.774-.15 36.06 36.06 0 00-1.318-.017h-.229v2.768h.414c.562 0 .955-.006 1.177-.017a1.91 1.91 0 00.703-.185c.264-.123.446-.293.545-.51.1-.217.15-.469.15-.756zm.827 5.318c0-.405-.082-.721-.246-.95-.164-.228-.41-.4-.739-.518-.199-.076-.474-.117-.826-.123a43.438 43.438 0 00-1.397-.018h-.607v3.279h.176c.856 0 1.447-.006 1.776-.018a2.77 2.77 0 001.002-.237c.298-.13.515-.317.65-.563.14-.252.21-.536.21-.852z"/></svg><svg viewBox="0 0 21 20" id="wb" xmlns="http://www.w3.org/2000/svg"><g clip-path="url(#ma)"><path d="M9.341 0c1.41 0 2.752.323 3.956.901.189.085.379.187.567.29l-.825.73L11.8.647l-2.133 1.87-1.256-1.343-3.92 3.486L7 7.396l-.98.85 2.477 2.738-.98.85 3.544 3.893 2.097-1.904 1.824 2.04a9.995 9.995 0 01-1.187.783 9.07 9.07 0 01-4.438 1.156c-4.97 0-9.012-3.995-9.012-8.909C.328 4.013 4.37 0 9.34 0zM7.69 8.349l2.15-1.905 1.926 2.126-2.15 1.904L7.69 8.349zm1.53 3.672l2.133-1.92 1.944 2.124-2.15 1.905-1.927-2.11zM6.16 4.727l2.15-1.904 1.925 2.125-2.15 1.904L6.16 4.727zm3.938-1.02l1.6-1.429 1.444 1.582-1.6 1.445-1.444-1.598zm2.855 6.546l1.6-1.428 1.444 1.597-1.6 1.43-1.444-1.6zm1.41 3.214l1.6-1.429 1.444 1.582-1.6 1.444-1.444-1.597zm.654-7.346l1.066-.952.963 1.054-1.066.952-.963-1.054zm-1.376-3.146l1.066-.968.964 1.07-1.067.953-.963-1.055zm2.735 6.292l1.066-.952.98 1.054-1.083.952-.963-1.054zm-4.799-2.364l1.6-1.428 1.444 1.581-1.599 1.429-1.445-1.582z"/></g><defs><clipPath id="ma"><path transform="translate(.5)" d="M0 0h20v20H0z"/></clipPath></defs></svg><svg viewBox="0 0 21 20" id="yand" xmlns="http://www.w3.org/2000/svg"><path fill-rule="evenodd" clip-rule="evenodd" d="M3.78 9.93c0-.983.083-1.608 2.138-3.13 1.701-1.259 7.155-5.563 7.155-5.563v7.185h4.147v10.34H5.075a1.294 1.294 0 01-1.296-1.284V9.93z"/><path fill-rule="evenodd" clip-rule="evenodd" d="M13.073 8.422v4.163l-7.62 5.148 9.634-3.108V8.422h-2.014z" fill-opacity=".2"/><path fill-rule="evenodd" clip-rule="evenodd" d="M9.59 8.207c.446-.527 1.097-.713 1.454-.415.358.297.286.965-.16 1.492-.445.526-1.096.712-1.453.415-.358-.298-.286-.966.16-1.492z"/></svg></svg>