<svg width="9" height="7" viewBox="0 0 9 7" fill="none" xmlns="http://www.w3.org/2000/svg">
<path d="M8.93415 5.3572C8.93415 5.42862 8.89844 5.50898 8.84487 5.56255L8.39844 6.00898C8.34487 6.06255 8.26451 6.09827 8.19308 6.09827C8.12165 6.09827 8.0413 6.06255 7.98772 6.00898L4.4788 2.50005L0.969866 6.00898C0.916295 6.06255 0.835938 6.09827 0.764509 6.09827C0.684152 6.09827 0.612723 6.06255 0.559152 6.00898L0.112723 5.56255C0.0591518 5.50898 0.0234375 5.42862 0.0234375 5.3572C0.0234375 5.28577 0.0591518 5.20541 0.112723 5.15184L4.27344 0.991124C4.32701 0.937552 4.40737 0.901838 4.4788 0.901838C4.55022 0.901838 4.63058 0.937552 4.68415 0.991124L8.84487 5.15184C8.89844 5.20541 8.93415 5.28577 8.93415 5.3572Z" fill="white"/>
</svg>
