<svg width="56" height="56" viewBox="0 0 56 56" fill="none" xmlns="http://www.w3.org/2000/svg">
<path d="M44.7948 39.1071C44.7948 39.4487 44.4934 39.75 44.1519 39.75H14.5805C14.239 39.75 13.9376 39.4487 13.9376 39.1071V23.6786C14.3595 24.1607 14.8216 24.6027 15.3238 25.0045C18.1966 27.2143 21.0894 29.4643 23.8818 31.7946C25.3885 33.0603 27.2568 34.6071 29.3461 34.6071H29.3662H29.3863C31.4756 34.6071 33.3439 33.0603 34.8506 31.7946C37.643 29.4643 40.5359 27.2143 43.4086 25.0045C43.9109 24.6027 44.3729 24.1607 44.7948 23.6786V39.1071ZM44.7948 17.9933C44.7948 19.7009 43.1475 21.9308 41.8417 22.9553C39.1497 25.0647 36.4577 27.1942 33.7859 29.3237C32.7211 30.1875 30.7926 32.0357 29.3863 32.0357H29.3662H29.3461C27.9399 32.0357 26.0113 30.1875 24.9466 29.3237C22.2747 27.1942 19.5827 25.0647 16.8908 22.9553C15.0827 21.529 13.9376 19.5402 13.9376 17.25C13.9376 16.9085 14.239 16.6071 14.5805 16.6071H44.1519C44.9153 16.6071 44.7948 17.4911 44.7948 17.9933ZM47.3662 17.25C47.3662 15.4821 45.9198 14.0357 44.1519 14.0357H14.5805C12.8126 14.0357 11.3662 15.4821 11.3662 17.25V39.1071C11.3662 40.875 12.8126 42.3214 14.5805 42.3214H44.1519C45.9198 42.3214 47.3662 40.875 47.3662 39.1071V17.25Z" fill="white"/>
</svg>
