<svg width="56" height="56" viewBox="0 0 56 56" fill="none" xmlns="http://www.w3.org/2000/svg">
<path d="M24.7284 32.5357V30.6071H27.2998V24.8214H27.2596C26.9382 25.3237 26.6369 25.5446 26.1547 25.9665L24.6078 24.3594L27.5811 21.6071H29.8712V30.6071H32.4427V32.5357H24.7284ZM35.0141 27.3928C35.0141 23.7366 32.8043 19.0357 28.5855 19.0357C24.3668 19.0357 22.1569 23.7366 22.1569 27.3928C22.1569 31.0491 24.3668 35.75 28.5855 35.75C32.8043 35.75 35.0141 31.0491 35.0141 27.3928ZM45.2998 32.5357C42.4672 32.5357 40.1569 34.846 40.1569 37.6786H17.0141C17.0141 34.846 14.7038 32.5357 11.8712 32.5357V22.25C14.7038 22.25 17.0141 19.9397 17.0141 17.1071H40.1569C40.1569 19.9397 42.4672 22.25 45.2998 22.25V32.5357ZM47.8712 15.8214C47.8712 15.1183 47.2886 14.5357 46.5855 14.5357H10.5855C9.88239 14.5357 9.2998 15.1183 9.2998 15.8214V38.9643C9.2998 39.6674 9.88239 40.25 10.5855 40.25H46.5855C47.2886 40.25 47.8712 39.6674 47.8712 38.9643V15.8214Z" fill="white"/>
</svg>
