<svg width="55" height="55" viewBox="0 0 55 55" fill="none" xmlns="http://www.w3.org/2000/svg">
<path d="M33.929 24.9286C33.929 29.8906 29.891 33.9286 24.929 33.9286C19.9669 33.9286 15.929 29.8906 15.929 24.9286C15.929 19.9665 19.9669 15.9286 24.929 15.9286C29.891 15.9286 33.929 19.9665 33.929 24.9286ZM44.2147 41.6429C44.2147 40.9598 43.9335 40.2969 43.4714 39.8348L36.5808 32.9442C38.208 30.5937 39.0718 27.7812 39.0718 24.9286C39.0718 17.1138 32.7437 10.7857 24.929 10.7857C17.1143 10.7857 10.7861 17.1138 10.7861 24.9286C10.7861 32.7433 17.1143 39.0714 24.929 39.0714C27.7817 39.0714 30.5942 38.2076 32.9446 36.5803L39.8352 43.4509C40.2973 43.933 40.9602 44.2143 41.6433 44.2143C43.0495 44.2143 44.2147 43.0491 44.2147 41.6429Z" fill="white"/>
</svg>
