<svg width="21" height="20" viewBox="0 0 21 20" fill="none" xmlns="http://www.w3.org/2000/svg">
<path fill-rule="evenodd" clip-rule="evenodd" d="M3.7795 9.93067C3.7795 8.94661 3.8627 8.3221 5.91777 6.80084C7.61915 5.54135 13.0727 1.2374 13.0727 1.2374V8.42206H17.2199V18.7626H5.07484C4.36242 18.7626 3.7793 18.1844 3.7793 17.4778L3.7795 9.93073V9.93067Z" fill="#3E9CDC"/>
<path fill-rule="evenodd" clip-rule="evenodd" d="M13.073 8.42197V12.585L5.45215 17.7335L15.0874 14.6246V8.42197H13.073Z" fill="black" fill-opacity="0.2"/>
<path fill-rule="evenodd" clip-rule="evenodd" d="M9.59025 8.20682C10.0359 7.6802 10.6868 7.49433 11.0442 7.79169C11.4016 8.08912 11.3301 8.75716 10.8845 9.28377C10.4391 9.81032 9.78796 9.99599 9.43057 9.69856C9.07318 9.4012 9.14482 8.7333 9.59025 8.20675V8.20682Z" fill="#231F20"/>
</svg>
